<?xml version="1.0" encoding="UTF-8"?>
<svg version="1.1" xmlns="http://www.w3.org/2000/svg" width="800" height="200">
<path d="M0 0 C7.50650765 6.30293259 14.07298792 13.75617754 15.375 23.75 C15.4575 24.905 15.54 26.06 15.625 27.25 C16.285 27.25 16.945 27.25 17.625 27.25 C17.66625 26.3425 17.7075 25.435 17.75 24.5 C18.92585143 16.46501523 23.51679958 8.21397776 29.51171875 2.77734375 C42.42904869 -6.55847142 56.20996742 -7.99691871 71.625 -6.75 C83.85956034 -4.59886851 92.3037569 1.37656783 99.625 11.25 C105.02571711 19.89787725 105.97021014 28.62878008 105.9375 38.625 C105.95361328 39.60210937 105.96972656 40.57921875 105.98632812 41.5859375 C105.99440833 53.73856348 102.27265945 64.52625978 93.9375 73.5 C82.91099598 83.94397173 69.68341723 84.81641892 55.2578125 84.55859375 C44.52137402 84.13232 35.61109956 80.50381015 27.625 73.25 C22.42815423 67.23930857 17.94447354 60.36157666 17.4375 52.25 C17.499375 51.59 17.56125 50.93 17.625 50.25 C16.965 50.25 16.305 50.25 15.625 50.25 C15.58375 51.343125 15.5425 52.43625 15.5 53.5625 C14.27243519 63.06351529 8.03792473 71.47710286 0.625 77.25 C-12.62746902 85.40536555 -28.08189829 86.17837217 -43.1953125 83.59765625 C-54.32913938 80.21099612 -62.88655179 73.51354373 -68.375 63.25 C-74.37179362 50.84713604 -74.74541723 33.45243707 -70.75 20.375 C-66.14310172 9.27656324 -59.31537084 1.15384024 -48.1875 -3.625 C-33.47694034 -9.4475282 -13.24594216 -9.21675823 0 0 Z M-41.0625 17.0625 C-47.42486332 25.83224403 -47.15028789 37.55249883 -46.1015625 47.96484375 C-44.97266074 54.87670455 -42.48699582 60.49366084 -37.1875 65.1875 C-31.49034298 67.33975932 -25.79785664 68.26740644 -20.0625 65.8125 C-15.65807853 63.1609493 -13.17598817 60.05747649 -11.375 55.25 C-8.47655296 42.64175536 -7.87853233 28.84004364 -14.375 17.25 C-17.03896209 14.06624042 -18.45583709 12.55638764 -22.375 11.25 C-30.58465546 10.58916086 -35.23223874 10.9610638 -41.0625 17.0625 Z M47.9375 17.0625 C41.57513668 25.83224403 41.84971211 37.55249883 42.8984375 47.96484375 C44.02733926 54.87670455 46.51300418 60.49366084 51.8125 65.1875 C57.50965702 67.33975932 63.20214336 68.26740644 68.9375 65.8125 C73.34192147 63.1609493 75.82401183 60.05747649 77.625 55.25 C80.52344704 42.64175536 81.12146767 28.84004364 74.625 17.25 C71.96103791 14.06624042 70.54416291 12.55638764 66.625 11.25 C58.41534454 10.58916086 53.76776126 10.9610638 47.9375 17.0625 Z " fill="#FF8400" transform="translate(444.375,68.75)"/>
<path d="M0 0 C5.22610908 4.13576977 8.4162807 8.37554297 11.125 14.4375 C11.74181641 15.78328125 11.74181641 15.78328125 12.37109375 17.15625 C17.3704374 30.30331288 17.3217158 47.62125786 12.38671875 60.78125 C7.60093053 70.85659363 0.74072 79.36631666 -9.875 83.4375 C-19.20558384 86.08475926 -31.13967536 85.71692604 -39.9296875 81.60546875 C-42.00467122 80.35964519 -43.93879608 78.88965294 -45.875 77.4375 C-46.205 88.6575 -46.535 99.8775 -46.875 111.4375 C-55.455 111.4375 -64.035 111.4375 -72.875 111.4375 C-72.875 73.1575 -72.875 34.8775 -72.875 -4.5625 C-64.295 -4.5625 -55.715 -4.5625 -46.875 -4.5625 C-46.545 -2.2525 -46.215 0.0575 -45.875 2.4375 C-45.42511719 2.03917969 -44.97523438 1.64085938 -44.51171875 1.23046875 C-31.65365537 -9.36004037 -13.6625598 -9.188814 0 0 Z M-40.71484375 16.0234375 C-47.74474431 23.89555109 -48.20047089 32.61392014 -48.08203125 42.83203125 C-47.53747432 52.31554149 -45.00812457 59.00909376 -37.875 65.4375 C-33.69134937 67.52932531 -28.43092381 66.86685408 -23.875 66.4375 C-20.33913289 64.94324084 -20.33913289 64.94324084 -17.875 62.4375 C-17.153125 61.7775 -16.43125 61.1175 -15.6875 60.4375 C-9.80910857 50.70774866 -9.70248452 38.91983548 -12.125 28.125 C-13.8009909 22.09922806 -15.80606804 18.10164093 -20.75 14.125 C-27.61262449 10.41918277 -34.66760302 10.81074167 -40.71484375 16.0234375 Z " fill="#FF8400" transform="translate(625.875,68.5625)"/>
<path d="M0 0 C8.25 0 16.5 0 25 0 C25.33 12.54 25.66 25.08 26 38 C27.98 36.35 29.96 34.7 32 33 C41.91074759 28.13156259 53.3693833 27.10229443 63.9375 30.625 C72.19172089 34.11577183 76.26089577 38.56786451 80.0546875 46.6328125 C81.75285898 50.88525844 82.16507432 54.64960133 82.31640625 59.23046875 C82.3793689 61.12539062 82.3793689 61.12539062 82.44360352 63.05859375 C82.48367661 64.43488307 82.52329787 65.8111856 82.5625 67.1875 C82.58367889 67.88198242 82.60485779 68.57646484 82.62667847 69.29199219 C83.11642563 85.52758577 83.09369863 101.75890375 83 118 C74.09 118 65.18 118 56 118 C56.03480469 114.06191406 56.06960938 110.12382812 56.10546875 106.06640625 C56.12889436 102.23381271 56.14709391 98.40122727 56.16479492 94.56860352 C56.1781397 91.91380224 56.20028011 89.25949147 56.22631836 86.60473633 C56.26288673 82.77939748 56.27976928 78.95438858 56.29296875 75.12890625 C56.30845261 73.95042618 56.32393646 72.77194611 56.33988953 71.55775452 C56.34135074 64.33217998 56.29526437 56.54036667 51.109375 50.96875 C46.49720436 48.85056793 41.47776877 49.11109509 36.74609375 50.80859375 C31.19635079 53.85200118 28.24262112 58.16381721 26 64 C25.30827202 68.2393587 25.27810411 72.40233842 25.29296875 76.69140625 C25.27784744 77.87725815 25.26272614 79.06311005 25.24714661 80.28489685 C25.20441932 84.04429361 25.19544539 87.80288506 25.1875 91.5625 C25.16434429 94.12306806 25.13897674 96.68361714 25.11132812 99.24414062 C25.04449017 105.49652742 25.02337286 111.74669805 25 118 C16.75 118 8.5 118 0 118 C0 79.06 0 40.12 0 0 Z " fill="#FF8400" transform="translate(288,33)"/>
<path d="M0 0 C9.95642309 6.88856493 15.99038755 16.41281117 19.06640625 28.0546875 C19.93088247 33.87025482 19.75390625 39.80021964 19.75390625 45.6796875 C-1.03609375 45.6796875 -21.82609375 45.6796875 -43.24609375 45.6796875 C-40.88638637 57.22687015 -40.88638637 57.22687015 -34.12109375 65.4921875 C-28.52078185 67.80535981 -22.70553898 68.46021786 -16.87109375 66.6171875 C-12.0180499 64.47872351 -10.19006117 60.65617021 -7.97338867 56.01489258 C-6.24609375 53.6796875 -6.24609375 53.6796875 -3.79418945 53.11206055 C-2.3723938 53.15133667 -2.3723938 53.15133667 -0.921875 53.19140625 C0.62016602 53.21557617 0.62016602 53.21557617 2.19335938 53.24023438 C3.80114258 53.30307617 3.80114258 53.30307617 5.44140625 53.3671875 C6.52486328 53.38974609 7.60832031 53.41230469 8.72460938 53.43554688 C11.4024253 53.4945296 14.07747652 53.57678443 16.75390625 53.6796875 C18.14964928 58.70974076 16.91920779 61.99571923 14.75390625 66.6796875 C9.03088022 76.41858691 0.20516585 82.05031428 -10.50952148 85.09082031 C-15.21056444 86.10241061 -19.82768006 86.16758134 -24.62109375 86.1171875 C-25.63115479 86.10961426 -26.64121582 86.10204102 -27.68188477 86.09423828 C-40.1951189 85.81789217 -49.06373881 82.51644796 -58.11328125 73.90234375 C-68.80578586 62.68209749 -69.71939042 49.93540502 -69.5234375 35.23046875 C-69.13702259 23.82834529 -65.31144761 14.00929952 -57.36328125 5.71484375 C-42.57549535 -8.00010278 -17.35561232 -10.20208167 0 0 Z M-38.62109375 17.8671875 C-40.89737688 21.48169317 -40.89737688 21.48169317 -42.24609375 29.6796875 C-31.02609375 29.6796875 -19.80609375 29.6796875 -8.24609375 29.6796875 C-9.29120661 22.36389747 -10.55382678 19.60950744 -15.37109375 14.3671875 C-23.78842425 9.42658047 -31.76608519 11.55336382 -38.62109375 17.8671875 Z " fill="#000000" transform="translate(144.24609375,67.3203125)"/>
<path d="M0 0 C8.80829925 7.3959981 14.63864593 15.80498685 16.625 27.25 C16.92237302 31.04598236 16.94995492 34.81877657 16.9375 38.625 C16.95361328 39.60210937 16.96972656 40.57921875 16.98632812 41.5859375 C16.99440833 53.73856348 13.27265945 64.52625978 4.9375 73.5 C-6.08900402 83.94397173 -19.31658277 84.81641892 -33.7421875 84.55859375 C-44.50794585 84.1311559 -53.34809102 80.4839561 -61.375 73.25 C-72.13197279 61.52262851 -73.21896483 47.86631401 -72.7578125 32.67578125 C-72.10564658 20.70915195 -67.36316343 10.80937966 -58.75 2.5 C-43.66566773 -9.99761633 -16.04430809 -11.16391019 0 0 Z M-41.0625 17.0625 C-47.42486332 25.83224403 -47.15028789 37.55249883 -46.1015625 47.96484375 C-44.97266074 54.87670455 -42.48699582 60.49366084 -37.1875 65.1875 C-31.49034298 67.33975932 -25.79785664 68.26740644 -20.0625 65.8125 C-15.65807853 63.1609493 -13.17598817 60.05747649 -11.375 55.25 C-8.47655296 42.64175536 -7.87853233 28.84004364 -14.375 17.25 C-17.03896209 14.06624042 -18.45583709 12.55638764 -22.375 11.25 C-30.58465546 10.58916086 -35.23223874 10.9610638 -41.0625 17.0625 Z " fill="#000000" transform="translate(268.375,68.75)"/>
<path d="M0 0 C1.08539062 -0.01546875 2.17078125 -0.0309375 3.2890625 -0.046875 C13.97187759 0.00411696 24.6906833 2.40878314 32.58203125 10.02734375 C37.24615708 15.03191672 39.75196745 20.08955245 40.25 26.9375 C40 29.5 40 29.5 39 30.5 C37.36527118 30.58700342 35.72685945 30.60701063 34.08984375 30.59765625 C33.10048828 30.59443359 32.11113281 30.59121094 31.09179688 30.58789062 C30.05087891 30.57951172 29.00996094 30.57113281 27.9375 30.5625 C26.89271484 30.55798828 25.84792969 30.55347656 24.77148438 30.54882812 C22.1809334 30.53699913 19.59049441 30.52051689 17 30.5 C16.50318726 29.57006226 16.50318726 29.57006226 15.99633789 28.62133789 C15.55539795 27.80914795 15.11445801 26.99695801 14.66015625 26.16015625 C14.22582275 25.35457275 13.79148926 24.54898926 13.34399414 23.71899414 C11.30111217 20.34610509 9.6529872 19.02761283 6 17.5 C-0.52888334 16.73711418 -5.48965767 16.63981367 -11 20.5 C-12.20561184 21.48267859 -12.20561184 21.48267859 -12.09765625 23.34765625 C-12.08605469 24.07855469 -12.07445312 24.80945313 -12.0625 25.5625 C-12.041875 26.861875 -12.02125 28.16125 -12 29.5 C-5.1497354 33.74298256 2.9116258 34.23703964 10.72851562 35.51757812 C21.90795628 37.44420789 32.26794213 39.64982592 40 48.5 C44.3630898 55.04463469 43.71164045 62.88710218 43 70.5 C41.3195867 77.58014135 35.84267638 82.50750447 30 86.5 C26.41420505 88.18144709 22.81170887 89.43752367 19 90.5 C18.40477539 90.6743457 17.80955078 90.84869141 17.19628906 91.02832031 C2.17404324 94.25452962 -15.68624166 92.61119138 -28.9375 84.8125 C-34.25279896 80.97530443 -37.93320427 75.70038718 -40 69.5 C-40.09182942 67.96050671 -40.13002352 66.41722145 -40.125 64.875 C-40.12757813 64.07835937 -40.13015625 63.28171875 -40.1328125 62.4609375 C-40 60.5 -40 60.5 -39 59.5 C-37.29227642 59.41286169 -35.58101351 59.39299993 -33.87109375 59.40234375 C-32.83662109 59.40556641 -31.80214844 59.40878906 -30.73632812 59.41210938 C-29.64771484 59.42048828 -28.55910156 59.42886719 -27.4375 59.4375 C-25.7987793 59.44426758 -25.7987793 59.44426758 -24.12695312 59.45117188 C-21.41791505 59.46300174 -18.70898401 59.47948457 -16 59.5 C-15.74532959 60.192146 -15.49065918 60.88429199 -15.22827148 61.59741211 C-14.88352783 62.50241455 -14.53878418 63.40741699 -14.18359375 64.33984375 C-13.84642334 65.23823975 -13.50925293 66.13663574 -13.16186523 67.06225586 C-11.49703602 70.55528374 -9.45569392 71.87793959 -6 73.5 C0.62778883 75.59298594 7.57978682 74.89184413 14 72.5 C16.04451019 71.45625978 16.04451019 71.45625978 17 69.5 C17.66666667 66 17.66666667 66 17 62.5 C13.33556002 59.67546863 9.81399307 58.85979415 5.3125 58.0625 C3.98408646 57.81403778 2.65597366 57.56396362 1.328125 57.3125 C0.62880859 57.18230469 -0.07050781 57.05210938 -0.79101562 56.91796875 C-4.68377771 56.18140722 -8.56201649 55.38469445 -12.4375 54.5625 C-13.1699292 54.4169165 -13.9023584 54.27133301 -14.65698242 54.12133789 C-23.34755832 52.25857857 -31.07052658 48.61709778 -36.3125 41.25 C-39.55120906 34.16200559 -39.20742681 24.84005951 -37.15234375 17.453125 C-34.02964468 10.46674741 -29.37355482 6.37256284 -22.39868164 3.38623047 C-14.78800001 0.6778167 -8.04796498 -0.11469784 0 0 Z " fill="#FF8400" transform="translate(682,61.5)"/>
<path d="M0 0 C8.25 0 16.5 0 25 0 C25 38.94 25 77.88 25 118 C16.75 118 8.5 118 0 118 C0 79.06 0 40.12 0 0 Z " fill="#000000" transform="translate(168,33)"/>
</svg>
